<svg version="1" xmlns="http://www.w3.org/2000/svg" width="1504" height="1504" viewBox="0 0 1128.000000 1128.000000"><path d="M497.9 120.4c-.2.3-2.2.6-4.4.8-2.2.3-5.8 1.4-8 2.5-2.6 1.3-7.7 2.4-14.8 3.2-7.6.7-12.1 1.8-15.5 3.4-2.6 1.4-7.8 3.5-11.7 4.7-7.1 2.4-12.7 4.7-27 11.5-4.4 2-10.7 5-14 6.6-4.4 2-6.3 3.6-7.1 5.7-.7 1.8-2.1 3.2-3.7 3.6-1.4.3-5.8 3.7-9.7 7.6-5.5 5.3-7.3 7.8-7.7 10.6-.4 2.3-1.5 4.1-3.2 5.2-3.7 2.4-5.8 4.9-9 11.2-2.9 5.6-5.4 8.2-10.4 11.4-1.6 1-3 2.9-3.3 4.6-.4 1.5-1.9 4-3.4 5.5-2.5 2.4-2.7 3-1.8 6.1.9 3.3.7 3.7-5.6 10.6-3.7 4-6.6 7.6-6.6 8 0 .5 1.9.6 4.3.2l4.2-.6-3.5 3.1c-19.3 17.1-26.4 25.8-29.5 36.1-2.4 8-6.2 14.9-10.6 19.5-4.7 4.9-4.9 6-1 3.7 4.3-2.4 4.8-.9 1.3 3.9-2.3 3.1-2.9 4.6-2.2 5.9 1.1 2-.5 3.8-6 6.5-1.9 1-4.4 2.5-5.5 3.5-1.1.9-3.9 2.4-6.3 3.3-2.3 1-6.7 4.2-9.8 7.2-3 3-6.4 5.7-7.5 6-1 .4-1.9 1.1-1.9 1.6 0 1.2-3.3 5.9-8.6 12.4-2.3 2.8-4.9 6.6-5.8 8.5-.9 1.9-3.2 6.2-5.1 9.5-4.3 7.4-6.5 12-6.5 13.8 0 .8-1.3 3.1-3 5.2-1.6 2.1-3 4.3-3.1 4.9-.2 5-1.1 8.7-2.9 12.1-1.1 2.1-2 4.5-2 5.2 0 .7-.4 1.3-.9 1.3-.4 0-.6 1.1-.3 2.5.3 1.6-.2 3.3-1.3 4.5-1 1.1-1.9 3.9-2.1 6.2-.7 8.9-3.1 19.5-5.2 23.5-.6 1.1-.9 2.3-.6 2.6.3.3.1 2.1-.4 4-.6 2.1-.6 4 0 5.1.5.9.7 2.5.3 3.4-.4.9-.8 4.9-.9 8.7-.1 3.9-.5 7.5-.9 8.2-.4.6-.4 1.9-.1 2.8.5 1.3.8 1.4 1.5.3.8-1.2 1.3.9 1.2 4.9-.1.7.4 1 1 .6 2.2-1.3 4.7-1 4.7.6 0 2.8-5.2 14.1-6.2 13.4-.6-.3-.8.3-.4 1.4.3 1.1-.1 4-1 6.4-2.4 6.6-3.8 46.6-1.8 52.3.8 2.2 2.3 9.9 3.4 17.1 1.9 13.2 3.1 17.8 5.4 20.5 2.5 2.9 8.6 15.2 8 16.2-.3.5.1 1.7.9 2.6 2.1 2.4 2.5 4.4 1.6 7-1.1 2.7-.4 4.2 5.8 12.6 5.9 7.9 10 16.1 11.9 23.9 1.1 4.1 3.1 8.1 5.9 11.9 2.3 3.1 7.5 11.9 11.4 19.5 6.4 12.2 8.1 14.7 15 21.3 9.2 8.9 15.3 16.5 18 22.4 1 2.4 4.1 6.7 6.7 9.7 2.7 3 6.6 7.5 8.8 10.2 2.1 2.6 4.5 4.7 5.3 4.7.8 0 2.8 1.1 4.3 2.3 1.8 1.5 4.7 2.6 8 3 6.9.8 12.6 4.3 19 11.7 4.3 4.9 5.8 6 8.3 6 1.7 0 4 .9 5.3 2.1 1.2 1.1 4.8 2.7 8 3.5 7.4 2 12.3 4.5 15.1 7.8 1.3 1.4 2.8 2.6 3.3 2.6.6 0 2.4 1 4.1 2.2 2.3 1.8 4.4 2.2 10.1 2.4 6.9.1 7.3.2 10.2 3.7 1.9 2.3 4 3.7 5.4 3.7 3.2 0 5.7 1.4 12.9 7.4 3.4 2.8 7.3 5.9 8.7 6.9 4.6 3.2 2.6 12.8-3.2 16.4-2.5 1.5-5 3.8-22.8 21.2-4.8 4.7-8.4 7.3-11.2 8.2-2.2.6-5.3 2.5-6.8 4-1.5 1.6-3.3 2.9-3.9 2.9-.7 0-2 .9-3.1 2.1-2.4 2.6-7.5 5.2-13.6 6.9-2.6.7-5.3 1.9-5.9 2.6-.6.7-2.7 1.6-4.8 2-2 .4-5.1 1.5-7 2.5-4.9 2.6-11.1 3.3-18.3 2-3.5-.6-9.4-1.5-13.3-2-3.8-.5-11.6-1.7-17.2-2.7-8.9-1.5-11.1-1.6-17-.5-21.6 4.1-30.4 7.5-34.2 13.4-1.2 1.8-3 4.5-4.1 6.2-1.1 1.6-1.9 3.9-1.8 4.9.4 2.3 5.5 4.1 7.4 2.5 1.3-1.1 2.8-1.4 22.4-4.4 17.4-2.7 40.5-1 44 3.2 1 1.3 2.6 1.7 5.1 1.5 2.3-.2 4 .2 4.9 1.2 3.5 4.3 29.9-.8 35.1-6.7 1.7-2 3.5-2.9 5.5-2.9 1.6 0 3.4-.5 4.1-1 1.7-1.3 12.1-1.7 15.5-.6 1.8.7 3.9.6 6.2-.2 3-.9 4.1-.8 7.3.7 3 1.4 5.9 1.7 14.2 1.5 7.6-.2 11.2.2 13.4 1.3 1.8.9 3.4 1.1 4.1.6 1.2-1 15.5-2.5 22.6-2.3 2.5 0 6.6.1 9.2.1 2.6.1 7.7.8 11.4 1.7 6 1.4 7.1 1.4 9.8 0 1.7-.8 3.9-1.7 4.9-2 .9-.3 1.7-.9 1.7-1.4 0-1.7-8.1-5.3-15.1-6.8-4-.8-8.1-2-9.1-2.5-1.4-.8-2.8-.7-4.8.1-3.5 1.5-6.5.6-10.8-3.1-1.8-1.6-4.3-2.9-5.5-2.9-1.3 0-3.2-.7-4.3-1.5-1-.8-2.9-1.5-4.2-1.5-1.3 0-3.7-.8-5.5-1.7-1.8-.9-4.3-1.7-5.6-1.8-2.4-.1-6.1-3.7-6.1-5.9 0-.7 1.1-2.7 2.5-4.6 1.4-1.9 2.5-3.9 2.5-4.6 0-.7 1.5-2.5 3.2-4 1.8-1.5 4.1-3.9 5-5.5.9-1.5 2.5-3 3.6-3.3 1.1-.4 2.3-1.8 2.7-3.3.3-1.4 2.4-4.3 4.6-6.5 2.1-2.1 3.9-4.3 3.9-4.8s2.4-2.7 5.3-5c5-3.7 5.8-4 12.1-4 3.7 0 7.6.5 8.6 1 1.1.6 6.1 1.2 11.2 1.4 5.5.2 11 1.1 13.2 2 2.1.9 5.9 1.6 8.5 1.6 2.6 0 5.2.5 5.9 1.2.9.9 2.3.9 6.2-.1 2.7-.7 6.3-1 8-.6 2.2.5 3.7.2 4.8-.9 2.5-2.2 10.3-5.5 13.2-5.6 1.4 0 3.4-.7 4.4-1.5 1.2-.9 4.2-1.5 7.5-1.5 4.9 0 6-.4 8.4-2.9 1.5-1.6 4.2-3.3 5.9-3.6 1.8-.4 4.4-1.6 5.8-2.6 1.5-1.2 5-2.1 9-2.5 8.6-.8 12.1-1.9 16.6-5.5 4.3-3.4 8.5-3.8 11.4-.9 3.9 3.9 2 8.4-8.1 20.1-5.9 6.8-13.5 16.2-17.4 21.4-1.6 2.2-5.4 6.5-8.5 9.5-5.1 5.2-8.5 8.9-16.3 18.3-6.6 7.9-18.1 19.7-19.2 19.7-2 0-12.7 7.4-17.2 11.9-2.3 2.2-5 4.1-6.1 4.1-1 0-2.7.9-3.6 1.9-1 1.1-3.9 3-6.4 4.3-4.5 2.2-5.7 2.3-30.2 2.5-14 .1-30.7.5-37.1.9-8.3.5-13.2.3-17-.6-3-.8-6.7-1.3-8.2-1.2-1.6.2-5.8-.7-9.5-1.9-6.2-1.9-8.1-2-25-1.4-15.4.6-18.6 1-20.6 2.6-1.2 1-4.1 2.5-6.3 3.4-3.5 1.4-3.9 1.9-3.9 4.9l.1 3.3 7 .7c6.4.5 15.3 3.1 17.1 4.9.4.4 4.6.7 9.3.7 5.5 0 11.3.8 16.1 2.1 4.1 1.1 9.6 2.4 12.2 2.9 2.6.5 5.7 1.4 6.9 2 1.3.8 4.1 1 7.3.6 5.8-.7 9.6.7 11.1 4.2.8 1.9 1.7 2.2 6.6 2.2 3.1 0 7.2-.6 9-1.4 2.5-1 9.4-1.4 26.6-1.4 21.2-.1 24.1-.3 33.5-2.6 17-4.1 20.7-4.2 32.3-.7 5.5 1.7 11.4 3.1 13.1 3.1 1.7 0 4.5 1.1 6.5 2.6 1.9 1.4 5 3.4 7 4.4 1.9 1 5.5 3.5 7.8 5.4 2.4 2 5.3 3.6 6.4 3.6 1.2 0 4 1.4 6.1 3 2.2 1.7 4.5 3 5.3 3 .7 0 2.5 1.1 4 2.5 6.9 6.1 9.5 7.7 12.6 7.9l3.2.1.3-9.8c.1-5.4-.1-9.6-.6-9.3-1.2.7-4.2-3.1-3.6-4.7.3-.9-.7-1.9-2.8-2.7-1.8-.8-4-1.9-4.8-2.7-5.1-4.4-8-6.2-11.4-6.8-3.8-.8-13.8-4.4-12.2-4.5.5 0 .3-.7-.4-1.5-.6-.7-3.2-1.7-5.7-2.1-2.6-.4-6.2-1.7-8.1-3-1.9-1.3-3.9-2.4-4.4-2.4-.5 0-2.5-1.2-4.4-2.7-3.2-2.4-3.5-3-2.9-6.2.4-2 1.3-4.3 2.2-5.1.8-.8 2.4-3.1 3.6-5 6.3-10.3 12.1-19.8 13.5-22.3 2.2-3.6 9.1-12.5 16.7-21.4 18-21 22.1-26.4 20.8-27.7-.3-.3 1-1.4 2.8-2.5 1.9-1.2 3.4-2.5 3.4-3 0-.9 1.4-2.6 9.6-11.2 4.9-5.1 8.9-11.8 8.9-14.7 0-1.2.8-2.5 1.8-3.1.9-.5 1.6-1.3 1.5-1.8-.2-.4 0-.8.5-.9 2.5-.3 4.3-2.1 5.3-5.5.7-2.1 1.6-3.6 2-3.3.5.3.9-.1.9-.9 0-2.3 2.9-4.2 4.2-2.9 1.7 1.7 2.5 1.5 3.1-.9.5-1.7.9-1.9 2.5-1 2.5 1.3 3.3.5 2.6-2.5-.4-1.3-.2-2.5.2-2.5 5.3-.7 7.1-.6 9.5.6 2.9 1.6 4.3.8 3.3-1.9-.4-1.1 0-1.6 1.4-1.6 1.1 0 2.5-.6 3.1-1.4.7-.8 2.1-1.3 3.2-1.1 1.1.2 1.7 0 1.4-.5-1-1.7 1.6-2.2 3.4-.6 1 .9 2.1 1.3 2.4 1 .4-.4 1.4-.1 2.3.7 1.4 1.1 2.2.7 6.5-3.8 3.3-3.5 4.9-4.6 4.9-3.4 0 .9.6 2.3 1.2 2.9 1 1 1.6.8 2.9-1 1.3-1.6 2-1.9 3.1-1.1 1.5 1.2 7.2 3.1 10.8 3.5 1.4.2 3.9 1.3 5.5 2.4 1.7 1.2 4 2.5 5.3 2.8 1.2.4 2.2 1.1 2.2 1.6s1.4 1.7 3.1 2.5c1.6.9 3.8 2.4 4.8 3.3 3.2 3 6.6 5.7 7.3 5.7.3 0 1.6 1.1 2.7 2.4 1.2 1.3 2.1 1.9 2.1 1.2s2.5 1.4 5.5 4.5c3 3.2 5.5 5.5 5.5 5.1 0-.3 3 2.6 6.7 6.6 3.7 4 7 7.4 7.3 7.7.3.3 3 3.4 6 7s6.3 7.4 7.4 8.5c1 1.1 3 3.6 4.4 5.5 1.4 1.9 3.1 3.9 3.7 4.5.5.5 2.6 3 4.5 5.5s6.9 8.4 11 13.3c11.4 13.3 24.6 30.1 28.2 35.9.9 1.5 5.7 6.9 10.7 12.1 6.7 7 10 11.5 13.1 17.7 2.3 4.5 6.9 12.3 10.4 17.4 3.4 5 7.1 11.2 8.2 13.6 8.1 19.2 21.8 41.5 31 50.5 19.5 19.1 23.2 20.7 30 13.3 3.9-4.3 6.9-10.2 9.5-18.8l1.4-4.5h5.6c4 0 6.3-.5 7.6-1.7 2.5-2.3 7.9-2.3 12.9.1 2.1 1 7.8 3.1 12.6 4.6 8.8 2.8 8.8 2.8 15 1.1 3.5-.9 8.8-2.1 11.8-2.7 6.2-1.1 7.2-1.8 7.5-5.1.2-2.6-7.3-17.9-10.7-21.9-7.1-8.3-10-11.8-12.6-15.4-1.6-2.2-4.1-5.1-5.6-6.4-1.5-1.5-2.2-2.7-1.6-3.1.6-.4-7.6-9.4-18.2-20.1-23.6-23.8-32.9-34.4-42.8-48.9-6.3-9.1-12.6-17.4-18.2-23.6-3-3.4-6.8-7.9-8.3-10-1.6-2.2-4.3-5.5-6.1-7.4-1.7-1.9-5.1-6.4-7.5-10-5.1-7.7-16-22.2-23-30.5-2.7-3.3-5.7-7.2-6.7-8.7-.9-1.5-2.5-2.9-3.4-3.2-1.7-.4-2.6-3.6-1-3.6.4 0 3 .8 5.7 1.9 6.9 2.6 18.3 4.3 22 3.3 2.5-.7 3.1-1.5 3.8-5.1.9-4.3-1.3-18.3-3.3-21.9-.6-1-3.7-8-7.1-15.7-3.3-7.7-6.8-15.2-7.7-16.7-1.3-2.2-1.4-3.1-.4-5 1-1.9.9-3.8-.4-10.3-.9-4.4-1.7-9.2-1.9-10.7-.2-1.5-1.8-5.4-3.6-8.5-1.8-3.2-6.3-14.8-9.9-25.8-3.7-11-7.2-20.1-7.8-20.1-.7-.1-1.7-.2-2.3-.3-.5 0-.7-.6-.3-1.2.3-.6-.3-2.1-1.5-3.3-1.2-1.1-4.7-6.4-7.8-11.6-3-5.2-7.4-12.2-9.8-15.5-7.3-10.4-10.8-17.2-10.1-20.1.4-1.5.1-3.3-.9-4.7-.8-1.2-1.5-2.7-1.5-3.3 0-.7-2.7-6.8-6-13.7-3.2-6.9-7-15.2-8.4-18.4-5.4-12.9-15.8-31.6-19-34.2-1-.8-2.6-3.1-3.6-5-1-2-4.4-6.8-7.7-10.6-3.2-3.9-6.9-8.4-8.1-10.2-1.3-1.8-3.5-4.6-5-6.2-8.1-8.9-20.8-29.3-19.5-31.4.3-.7.3-.9-.1-.5-.8.6-6.5-9.1-11.3-19.2-10.8-22.8-13.2-27.5-16.8-31.5-1.5-1.7-5.3-7.1-8.5-12-12.9-19.7-19.9-29.5-28.5-40.3-4.9-6.1-11.6-14.5-14.7-18.4-7.8-9.9-26.7-30.1-30.1-32.2-4.8-3-6-6.7-5.4-17.4.3-5.2.2-10.2-.3-11.1-.8-1.7-1.4-37.7-.7-46.6.7-9.2 5.2-18.5 8.9-18.5.5 0 5-2 10-4.5 5-2.4 9.4-4.2 9.9-3.9.5.3 2.1-.6 3.6-2s3.1-2.2 3.7-1.9c.6.3.6 0-.1-.7-.9-1 0-2 4.6-4.9 3.2-2 8.1-5.5 10.7-7.8 5.8-5 5.4-5.7-4.1-9.2-5.9-2.1-29.2-4.5-29.7-3-.2.4-3.9 1-8.2 1.4-5.4.5-7.7.4-7.2-.3.3-.6-.9-2-2.7-3.1-1.9-1.1-3.9-3.3-4.6-4.8-.7-1.5-3-4.3-5.2-6.1-2.1-1.8-3.9-4-3.9-4.8 0-2-8.4-9.7-14.8-13.6-6.8-4.1-20.1-14.7-23.3-18.5-3.1-3.6-10-6.9-16.4-7.8-2.7-.4-8.2-2-12-3.6-3.9-1.6-10.5-3.3-14.8-3.9-4.3-.5-8.2-1.2-8.7-1.5-.4-.3-7.7-1.2-16.2-2-8.4-.8-16.2-1.7-17.4-2-1.2-.2-2.3-.3-2.5-.1z"/><path d="M671.5 222.1c-.4.6-.5 1.2-.2 1.5.2.3.7-.2 1-1.1.7-1.7.1-2-.8-.4zM899 760.9c0 .6.4 1.3 1 1.6.6.3.7-.1.4-.9-.7-1.8-1.4-2.1-1.4-.7zM901 764.5c0 .5.5 1.7 1 2.5s1 1 1 .5c0-.6-.5-1.7-1-2.5s-1-1.1-1-.5z"/></svg>